PathFileType	4	(X/Y/Z)	C:/Users/beibeiliu/ov580/test_trc/User3\out8_training_dense_right.trc
DataRate	CameraRate	NumFrames	NumMarkers	Units	OrigDataRate	OrigDataStartFrame	OrigNumFrames
120	120	20	19	mm	120	188	500
Frame#	Time	ThumbCMC			ThumbMCP			ThumbIP			ThumbTip			IndexMCP			IndexPIP			IndexTip			MiddleMCP			MiddlePIP			MiddleTip			RingMCP			RingPIP			RingTip			PinkyMCP			PinkyPIP			PinkyTip			BackHand1			BackHand2			BackHand3	
		X0	Y0	Z0	X1	Y1	Z1	X2	Y2	Z2	X3	Y3	Z3	X4	Y4	Z4	X5	Y5	Z5	X6	Y6	Z6	X7	Y7	Z7	X8	Y8	Z8	X9	Y9	Z9	X10	Y10	Z10	X11	Y11	Z11	X12	Y12	Z12	X13	Y13	Z13	X14	Y14	Z14	X15	Y15	Z15	X16	Y16	Z16	X17	Y17	Z17	X18	Y18	Z18	
187	1.55833	192.419	69.4473	32.5914	180.321	74.8553	-4.46696	172.332	71.6397	-33.9016	171.33	48.8347	-51.8781	242.329	68.6032	-27.1952	249.462	82.7837	-55.4581	250.821	84.1821	-78.3762	226.048	51.5027	-41.45	195.325	62.0793	-55.6187	176.13	55.2036	-22.2534	217.156	34.1731	-42.2717	191.222	41.6714	-51.6638	173.976	43.1089	-19.4109	224.707	9.63956	-27.3536	232.3	12.8582	-48.5186	240.106	17.3267	-69.7631	227.36	15.6446	17.1214	217.833	11.9725	42.5451	227.305	48.5175	33.4784	
188	1.56667	187.328	68.256	33.9018	173.225	75.9299	-2.68795	175.31	68.2565	-35.528	179.846	47.179	-51.8354	240.818	86.7617	-21.8275	244.86	96.5673	-48.5934	247.818	101.588	-70.8624	230.65	64.7165	-38.9441	204.37	60.5229	-55.6614	179.78	50.8791	-21.6837	227.122	44.5053	-35.8185	200.379	41.2586	-50.3137	180.88	37.0923	-20.3131	236.653	24.6111	-19.3433	247.732	31.1242	-40.6898	257.355	37.2889	-61.7476	234.122	27.2681	22.7553	226.529	21.6838	46.1566	225.593	53.3984	41.855	
189	1.575	179.845	69.5787	31.0556	171.114	71.5506	-5.90952	174.272	66.0646	-39.0175	188.786	45.2733	-50.1445	230.476	96.8918	-15.0225	234.54	112.395	-42.3251	236.249	119.638	-63.5668	230.353	74.8284	-34.453	200.908	66.8662	-52.7625	181.248	50.4434	-24.7092	231.136	54.7457	-35.0211	205.934	47.0819	-48.1391	188.958	33.8585	-22.57	245.912	32.9872	-15.2649	254.787	47.4898	-35.6925	263.657	52.868	-53.2007	240.068	38.6739	26.3203	228.612	29.6047	51.3214	218.897	64.8465	43.8777	
190	1.58333	172.986	61.6144	33.1215	167.322	64.4279	-6.78271	172.265	59.8465	-36.843	194.497	43.8571	-51.0113	219.144	105.411	-14.2164	221.629	118.511	-38.4758	224.858	127.238	-62.9795	226.607	80.3541	-28.9809	203.42	64.4233	-52.046	186.952	43.7153	-22.6865	230.831	61.7591	-32.6118	210.873	48.4069	-47.4072	191.904	32.4677	-20.4777	246.233	47.2372	-10.6697	256.396	58.4335	-30.444	266.104	66.3163	-48.5165	239.705	49.0488	26.5316	227.74	34.8745	54.7987	210.819	69.8083	45.3802	
191	1.59167	171.363	57.194	26.7326	163.756	54.3188	-5.43223	173.024	52.3003	-41.7865	192.587	40.4446	-52.4508	210.449	105.27	-19.4377	209.336	117.704	-40.8249	209.11	126.427	-62.2967	220.252	81.4151	-35.2104	203.595	62.9899	-53.3845	187.733	41.3018	-22.7737	231.523	64.384	-28.8336	211.882	47.6772	-47.2341	194.713	31.2399	-22.9453	249.921	55.4321	-11.4626	256.916	65.5463	-30.1142	261.192	80.6378	-47.9167	234.156	60.0934	30.1287	225.241	42.6452	54.1952	206.678	69.9123	40.6254	
192	1.6	166.173	50.8476	24.2657	159.05	44.4655	-12.7169	175.395	41.6468	-40.7971	195.475	31.4351	-52.6101	196.221	100.288	-23.971	199.985	107.737	-46.9206	199.247	116.099	-75.203	215.262	76.8767	-38.3052	199.277	53.538	-54.4844	187.785	34.3505	-21.7595	225.033	62.4712	-34.953	215.103	39.0181	-48.2729	195.363	25.1125	-20.7783	243.377	60.4161	-13.6288	252.563	69.3508	-32.1977	260.987	78.3414	-48.3984	229.696	61.2126	26.6526	223.14	49.2906	50.5049	197.204	69.3868	41.5756	
193	1.60833	165.452	42.8274	24.719	161.31	34.5433	-16.139	171.378	25.6247	-39.8845	197.616	18.1013	-51.9368	192.28	88.2699	-30.1936	192.093	95.0546	-57.1188	191.194	97.8444	-85.9062	209.392	66.7102	-43.7843	198.481	43.0411	-58.4304	187.716	26.2417	-23.6222	225.658	53.7138	-33.5201	210.267	27.923	-47.7031	196.43	15.7106	-18.1196	245.743	51.1661	-14.4035	252.112	62.6797	-36.8402	259.458	71.4565	-54.9912	230.438	61.9361	21.2912	224.443	48.3803	52.141	194.22	67.0646	36.5134	
194	1.61667	160.879	39.1479	21.3587	157.818	23.5222	-15.1606	171.862	12.436	-41.5784	195.866	3.5237	-46.7812	192.667	75.7632	-42.0396	189.688	77.8654	-68.2193	192.871	74.4752	-91.7799	209.867	51.9207	-49.3443	199.318	23.2099	-57.4776	187.53	14.0554	-21.2465	222.401	39.7849	-38.0084	212.263	13.06	-45.7144	199.135	4.31913	-16.1238	239.51	46.071	-19.8937	249.427	47.708	-36.4056	252.952	56.906	-55.8863	224.881	56.8108	16.0879	221.082	50.6448	47.5812	191.694	66.7422	28.1331	
195	1.625	161.142	36.0088	19.1401	157.716	15.5189	-12.3832	168.487	-0.0129637	-33.6983	193.285	-8.41831	-38.7756	187.599	61.5947	-47.8731	184.265	60.6651	-74.0778	182.842	53.5873	-101.162	201.989	39.592	-51.3464	191.171	9.19664	-56.4875	185.182	2.1054	-20.4035	218.774	24.8898	-39.466	206.983	-0.523249	-42.9107	192.793	-2.82304	-11.052	237.781	34.5545	-21.4209	246.364	33.8498	-38.9512	249.33	42.2176	-62.3335	218.307	51.1089	15.08	217.735	47.6696	43.8571	189.875	61.06	24.8412	
196	1.63333	155.268	32.7511	21.6092	151.062	8.69022	-8.08512	161.515	-9.90227	-27.5176	183.158	-23.3076	-35.7319	179.945	49.6072	-51.8076	176.812	42.6375	-76.0103	173.892	33.176	-100.368	195.133	24.3865	-52.3771	182.485	-5.23351	-53.2034	175.241	-4.52428	-12.6696	208.124	15.0985	-39.4761	197.484	-14.4631	-37.4621	186.199	-10.5922	-5.47024	227.371	22.6785	-21.6396	237.683	20.2876	-45.0609	245.979	22.744	-60.6075	219.959	45.2547	9.6633	214.751	44.7383	43.7605	186.915	57.2436	20.0099	
197	1.64167	149.094	32.2044	25.7085	140.621	4.51912	-4.15239	148.95	-16.7183	-23.692	168.735	-30.2617	-26.3122	170.149	39.321	-49.1733	165.582	29.1067	-77.3576	163.674	17.2823	-95.4917	183.42	18.1015	-48.1158	168.998	-12.0554	-51.5287	164.884	-10.3531	-7.88989	195.548	5.31879	-37.2179	183.383	-23.3725	-30.763	171.908	-15.9645	-2.57168	221.933	10.7551	-19.588	225.171	7.02402	-44.934	227.971	5.38318	-63.8484	210.156	37.8789	7.06297	206.708	44.0795	41.3731	179.425	57.5826	17.5593	
198	1.65	144.161	34.4536	27.924	130.025	8.37544	7.07555	133.086	-16.5911	-15.1618	152.121	-36.9981	-24.107	157.841	37.1066	-46.0267	152.179	24.1584	-73.9966	142.252	12.3688	-96.6058	172.294	7.36348	-46.7184	148.146	-16.9877	-43.9251	147.143	-12.6658	-4.0862	183.26	-3.42372	-33.711	163.508	-28.2103	-26.3607	156.684	-18.3966	1.03303	207.213	1.97201	-22.3478	209.27	-6.27343	-45.2136	211.231	-10.112	-62.9472	202.577	31.9868	8.03732	203.61	41.0216	33.9819	177.699	52.6976	18.2634	
199	1.65833	138.278	38.1259	26.7632	117.01	11.8132	7.19192	118.102	-12.392	-10.8012	130.658	-32.4963	-16.4211	147.588	33.1738	-47.9068	134.95	28.9035	-69.431	126.681	14.8335	-89.5172	153.538	5.68044	-45.7636	129.616	-14.5894	-40.7958	133.998	-10.2457	0.684606	165.097	-7.30859	-32.4412	141.156	-25.9643	-23.4796	142.24	-15.2217	9.0651	190.617	-6.38937	-20.5139	186.892	-14.3414	-45.5381	182.75	-21.2385	-64.1959	195.503	24.5669	3.26818	199.181	35.2638	35.1688	170.969	55.7127	15.7333	
200	1.66667	134.201	46.3747	31.6535	108.806	25.5487	17.032	99.6863	-0.144913	-4.19501	106.298	-23.177	-11.4008	136.668	40.4375	-43.5721	123.083	32.7942	-68.5476	109.707	22.3917	-86.3792	137.375	7.73425	-42.8031	111.721	-8.34929	-35.8265	116.048	-2.66523	3.86942	146.774	-6.98516	-30.8012	122.738	-21.7046	-17.1783	126.911	-7.85646	14.5755	172.256	-10.7633	-21.1195	160.616	-16.9268	-43.692	152.624	-25.7737	-62.1177	183.95	25.2398	2.8439	195.643	29.0086	35.2399	170.444	52.6237	14.6022	
201	1.675	133.141	58.6737	35.0893	100.655	41.1284	17.1136	86.6759	21.2501	3.25413	86.9333	-5.52833	-5.76849	130.218	47.384	-41.1612	114.122	41.3392	-65.9169	96.8782	36.465	-82.5968	124.472	15.0578	-39.229	92.1051	9.99711	-31.9373	102.144	14.5225	9.69581	130.976	-1.1566	-26.2621	103.684	-10.8538	-15.0501	107.384	5.67798	16.0641	151.249	-9.64073	-17.7187	140.545	-16.4918	-37.5023	124.25	-22.8335	-56.0435	175.228	16.3576	3.8212	187.102	26.0259	30.7397	166.834	54.6298	17.0822	
202	1.68333	136.294	65.0123	32.0241	102.083	58.4475	20.5288	79.8414	40.363	3.85644	78.4578	14.8821	-1.71138	127.348	55.209	-44.4879	109.778	52.5054	-64.2851	91.3853	49.4186	-81.5106	116.278	29.5167	-36.6139	82.5117	26.1225	-27.2683	91.6923	34.1158	9.21951	115.121	11.9281	-26.1311	87.517	9.2592	-9.9988	96.8418	19.8417	18.0942	134.293	-6.77903	-17.7533	120.999	-7.6546	-35.7393	105.846	-14.8462	-53.1536	168.311	15.8241	5.34266	178.935	17.0823	31.0845	168.604	51.0407	14.5922	
203	1.69167	142.69	74.3731	28.8413	107.13	75.8772	18.8155	83.0275	59.4127	4.23637	72.0366	35.6545	-1.18984	129.569	60.0074	-45.6207	113.729	64.0504	-64.9831	91.904	66.0882	-83.9689	109.486	37.9169	-38.6394	81.38	45.4813	-26.5009	93.097	47.4935	11.7502	108.579	19.6285	-25.4566	81.2391	28.8262	-9.72962	96.1017	35.57	19.4377	122.914	2.61229	-20.0819	108.262	2.66091	-36.4536	95.6282	-1.06091	-51.5374	160.722	15.335	3.69352	175.419	12.4409	33.7049	172.086	49.104	10.2604	
204	1.7	153.145	74.8893	30.6828	119.189	82.43	15.8767	91.5184	76.6426	0.74631	76.9005	55.737	-2.79606	137.339	60.1574	-47.846	121.933	69.6386	-68.0012	101.535	71.6642	-86.2178	114.349	44.4306	-39.3913	87.0069	56.607	-28.62	98.9511	63.4376	9.28901	108.718	31.0601	-30.0106	83.6619	40.5559	-13.2625	98.9475	51.0508	14.2258	120.608	8.81144	-18.3495	104.974	6.78128	-36.8321	94.1461	9.23642	-53.6146	157.035	15.7149	5.36568	170.495	12.1247	31.0353	175.423	46.0069	11.9728	
205	1.70833	162.715	74.2934	27.0303	133.784	92.1871	11.9027	106.637	86.5354	-4.73288	90.7071	64.4962	-9.71611	149.741	60.7197	-50.0651	136.262	70.7744	-72.417	122.957	76.4175	-87.1382	127.379	46.801	-41.5983	100.215	64.5827	-36.1187	110.108	67.1315	5.4114	116.336	32.5839	-35.3717	94.5809	50.029	-26.2528	105.428	58.2972	4.06545	125.245	13.5234	-19.0899	112.711	12.8955	-40.4439	100.793	15.4284	-61.0522	159.696	11.1635	2.88851	173.333	11.692	32.1119	181.829	39.9085	10.9068	
206	1.71667	175.14	70.2987	23.2707	148.217	89.4815	4.08001	121.351	88.5892	-15.2178	103.812	69.3043	-18.8738	165.94	54.7735	-52.396	156.047	66.4671	-74.1769	140.389	75.2348	-93.7572	142.662	44.7469	-47.1553	115.5	66.007	-45.1251	123.197	71.5874	-4.49696	131.501	30.7553	-38.6045	106.429	52.6843	-33.1783	116.461	58.8598	-0.89395	132.115	12.4344	-24.003	123.199	15.2636	-47.8701	112.8	16.007	-65.662	166.624	11.2973	1.70886	171.4	5.62658	29.8051	187.068	33.5577	11.2075	
